<?xml version="1.0" encoding="utf-8"?>
<!-- Generator: Adobe Illustrator 16.0.0, SVG Export Plug-In . SVG Version: 6.00 Build 0)  -->
<!DOCTYPE svg PUBLIC "-//W3C//DTD SVG 1.1//EN" "http://www.w3.org/Graphics/SVG/1.1/DTD/svg11.dtd">
<svg version="1.1" xmlns="http://www.w3.org/2000/svg" xmlns:xlink="http://www.w3.org/1999/xlink" x="0px" y="0px" width="500px"
	 height="500px" viewBox="0 0 500 500" enable-background="new 0 0 500 500" xml:space="preserve">
<g id="BACKGROUND" display="none">
	<linearGradient id="SVGID_1_" gradientUnits="userSpaceOnUse" x1="250" y1="44.9868" x2="250" y2="455.8418">
		<stop  offset="0" style="stop-color:#0074FF"/>
		<stop  offset="0.1476" style="stop-color:#0977FF"/>
		<stop  offset="0.3878" style="stop-color:#217EFF"/>
		<stop  offset="0.6907" style="stop-color:#4989FF"/>
		<stop  offset="1" style="stop-color:#7897FF"/>
	</linearGradient>
	<rect display="inline" fill="url(#SVGID_1_)" width="500" height="500"/>
</g>
<g id="OBJECTS">
	<g>
		<linearGradient id="SVGID_2_" gradientUnits="userSpaceOnUse" x1="171.2041" y1="96.7656" x2="171.2041" y2="158.6671">
			<stop  offset="0" style="stop-color:#004BD8"/>
			<stop  offset="0.4089" style="stop-color:#064ACF"/>
			<stop  offset="1" style="stop-color:#1548BA"/>
		</linearGradient>
		<path fill="url(#SVGID_2_)" d="M237.569,161.841c0,1.922-1.558,3.479-3.479,3.479H108.318c-1.921,0-3.479-1.557-3.479-3.479
			V93.467c0-1.922,1.558-3.479,3.479-3.479h125.771c1.921,0,3.479,1.557,3.479,3.479V161.841z"/>
		<g>
			<circle fill="#006AFF" cx="218.53" cy="99.48" r="3.749"/>
			<circle fill="#006AFF" cx="208.031" cy="99.48" r="3.749"/>
			<circle fill="#006AFF" cx="229.028" cy="99.48" r="3.75"/>
		</g>
		<text transform="matrix(1 0 0 1 116.9854 119.1001)"><tspan x="0" y="0" fill="#0089FF" font-family="'SourceSansPro-Bold'" font-size="8.9096">public class  Programmer{</tspan><tspan x="0" y="10.691" fill="#0089FF" font-family="'SourceSansPro-Bold'" font-size="8.9096">    String </tspan><tspan x="31.708" y="10.691" fill="#EA52FF" font-family="'SourceSansPro-Bold'" font-size="8.9096">name</tspan><tspan x="52.842" y="10.691" fill="#FFFFFF" font-family="'SourceSansPro-Bold'" font-size="8.9096">=&quot;Miguel&quot;;</tspan><tspan x="0" y="21.383" fill="#0089FF" font-family="'SourceSansPro-Bold'" font-size="8.9096">}</tspan></text>
	</g>
	<g>
		<linearGradient id="SVGID_3_" gradientUnits="userSpaceOnUse" x1="329.2544" y1="40.8511" x2="329.2544" y2="133.9775">
			<stop  offset="0" style="stop-color:#0043C1"/>
			<stop  offset="0.4089" style="stop-color:#0542B8"/>
			<stop  offset="1" style="stop-color:#123FA3"/>
		</linearGradient>
		<path fill="url(#SVGID_3_)" d="M410.792,140.171c0,2.107-1.709,3.815-3.816,3.815H251.532c-2.107,0-3.816-1.708-3.816-3.815V34.47
			c0-2.107,1.708-3.815,3.816-3.815h155.443c2.107,0,3.816,1.708,3.816,3.815V140.171z"/>
		<g>
			<circle fill="#0060E8" cx="387.864" cy="40.146" r="3.749"/>
			<circle fill="#0060E8" cx="377.365" cy="40.146" r="3.749"/>
			<circle fill="#0060E8" cx="398.362" cy="40.146" r="3.75"/>
		</g>
		<g>
			<rect x="263.197" y="50.168" fill="#007CE8" width="12.951" height="5.229"/>
			<g>
				<rect x="263.197" y="98.968" fill="#007CE8" width="26.552" height="5.229"/>
				<rect x="294.606" y="98.968" fill="#6F9CE8" width="70.913" height="5.229"/>
			</g>
			<g>
				<rect x="268.378" y="111.168" fill="#007CE8" width="16.838" height="5.229"/>
				<rect x="290.073" y="111.168" fill="#6F9CE8" width="89.047" height="5.229"/>
			</g>
			<g>
				<rect x="268.378" y="123.369" fill="#D44AE8" width="16.838" height="5.229"/>
				<rect x="290.073" y="123.369" fill="#6F9CE8" width="89.047" height="5.229"/>
			</g>
			<g>
				<rect x="268.378" y="62.369" fill="#007CE8" width="12.952" height="5.229"/>
				<rect x="286.188" y="62.369" fill="#D44AE8" width="38.857" height="5.229"/>
				<rect x="329.901" y="62.369" fill="#6F9CE8" width="65.41" height="5.229"/>
			</g>
			<g>
				<rect x="268.378" y="74.569" fill="#D44AE8" width="17.485" height="5.229"/>
				<rect x="290.721" y="74.569" fill="#6F9CE8" width="28.495" height="5.229"/>
				<rect x="324.072" y="74.569" fill="#007CE8" width="71.239" height="5.229"/>
			</g>
			<g>
				<rect x="277.445" y="86.769" fill="#D44AE8" width="17.484" height="5.228"/>
				<rect x="299.787" y="86.769" fill="#6F9CE8" width="28.495" height="5.228"/>
				<rect x="333.14" y="86.769" fill="#6F9CE8" width="44.686" height="5.228"/>
			</g>
		</g>
	</g>
	<g>
		<g>
			<path fill="#15193B" d="M287.438,401.206c-8.142-1.916-35.311-3.742-36.462-3.82c-0.229-0.017-0.451,0.001-0.673,0.021
				c-0.102-0.007-0.199-0.03-0.303-0.03c-0.104,0-0.201,0.023-0.304,0.03c-0.221-0.02-0.443-0.037-0.672-0.021
				c-1.152,0.078-28.32,1.904-36.462,3.82c-6.693,1.574-14.377,4.623-14.377,14.295c0,2.309,1.872,4.182,4.182,4.182
				c2.311,0,4.183-1.873,4.183-4.182c0-2.107,0-4.287,7.929-6.152c5.795-1.364,23.528-2.774,31.339-3.35v16.008
				c0,2.309,1.873,4.182,4.183,4.182s4.183-1.873,4.183-4.182v-16.008c7.811,0.575,25.543,1.985,31.339,3.35
				c7.929,1.865,7.929,4.045,7.929,6.152c0,2.309,1.872,4.182,4.182,4.182c2.311,0,4.183-1.873,4.183-4.182
				C301.815,405.829,294.132,402.78,287.438,401.206z"/>
			<g>
				<g>
					<g>
						<circle fill="#778586" cx="201.207" cy="424.096" r="10.456"/>
					</g>
					<g>
						<circle fill="#4F475C" cx="201.207" cy="424.096" r="4.331"/>
					</g>
				</g>
				<g>
					<g>
						<circle fill="#778586" cx="298.795" cy="424.096" r="10.456"/>
					</g>
					<g>
						<circle fill="#4F475C" cx="298.795" cy="424.096" r="4.331"/>
					</g>
				</g>
			</g>
			<path fill="#657172" d="M254.969,432.586c0,1.086-0.88,1.967-1.965,1.967h-6.006c-1.086,0-1.966-0.881-1.966-1.967v-16.051
				c0-1.086,0.88-1.965,1.966-1.965h6.006c1.085,0,1.965,0.879,1.965,1.965V432.586z"/>
		</g>
		<path fill="#15193B" d="M303.001,334.565c0,4.971-4.029,9-9,9h-88c-4.971,0-9-4.029-9-9v-8.667c0-4.971,4.029-9,9-9h88
			c4.971,0,9,4.029,9,9V334.565z"/>
		<g>
			<path fill="#1F277F" d="M209.579,412.232c0,0-5.568,9.303-10,16.5c-3.207,5.207-11.634,9.687-6.568,14.921
				c5.064,5.233,15.827,5.887,22.792,2.616c6.964-3.271,6.331-6.542,13.928-12.431c7.598-5.889,6.965-18.321,3.166-24.21
				S209.579,412.232,209.579,412.232z"/>
			<path fill="none" stroke="#2F5EC4" stroke-width="2" stroke-miterlimit="10" d="M204.311,419.565c0,0,8.293-0.666,13.269,4"/>
			<path fill="none" stroke="#2F5EC4" stroke-width="2" stroke-miterlimit="10" d="M200.579,425.565c0,0,8.293-0.666,13.269,4"/>
			<path fill="#1F277F" d="M290.422,412.232c0,0,5.568,9.303,10,16.5c3.207,5.207,11.634,9.687,6.568,14.921
				c-5.064,5.233-15.827,5.887-22.792,2.616c-6.964-3.271-6.331-6.542-13.928-12.431c-7.598-5.889-6.965-18.321-3.166-24.21
				S290.422,412.232,290.422,412.232z"/>
			<path fill="none" stroke="#2F5EC4" stroke-width="2" stroke-miterlimit="10" d="M295.69,419.565c0,0-8.293-0.666-13.269,4"/>
			<path fill="none" stroke="#2F5EC4" stroke-width="2" stroke-miterlimit="10" d="M299.422,425.565c0,0-8.293-0.666-13.269,4"/>
		</g>
		<path fill="#73BBE2" d="M292.432,275.658c0,0-23.937-2.093-42.432-2.093c-18.494,0-42.431,2.093-42.431,2.093
			s-2.783,25.143-0.557,30.032c2.176,4.775,14.167,10.071,42.987,10.071c28.821,0,40.812-5.296,42.988-10.071
			C295.215,300.8,292.432,275.658,292.432,275.658z"/>
		<g>
			<path fill="#81D2FE" d="M291.32,264.596c0,0,7.347-61.263,2.833-70.614c-6.065-12.572-33.252-12.75-44.153-12.75
				s-38.088,0.178-44.153,12.75c-4.515,9.352,2.833,70.614,2.833,70.614s-1.081,4.903-0.081,8.336s11.368,5.805,15.833,6.049
				c6,0.327,17.269,0.252,27.867,0.252s22.934-0.8,26.8-1.233s9.144-2.966,11-7.52C291.099,268.029,291.32,264.596,291.32,264.596z"
				/>
			<g>
				<path fill="#81D2FE" d="M209.44,189.414c-4,1.312-28.215,48.007-31.715,63.25c-2.229,9.709-0.666,18.521,6,22.127
					c6.667,3.605,32.5,3.441,32.5,3.441l0.548-76.033C216.773,202.199,213.44,188.103,209.44,189.414z"/>
				<g>
					<path fill="none" stroke="#5C9FD9" stroke-miterlimit="10" d="M211.628,188.751c0,0,2.345,6.96,4.098,14.48
						c1.753,7.521,1.563,13.955,1.563,13.955s-2.063,27.045-2.063,34.045"/>
					<g>
						<path fill="none" stroke="#5C9FD9" stroke-miterlimit="10" d="M195.44,239.25c0,0,6,2.001,9,8.501"/>
						<path fill="none" stroke="#5C9FD9" stroke-miterlimit="10" d="M193.106,244.25c0,0,20.119,5.482,33.619,16.482"/>
					</g>
				</g>
				<path fill="#81D2FE" d="M290.559,189.414c4,1.312,28.215,48.007,31.715,63.25c2.229,9.709,0.666,18.521-6,22.127
					c-6.667,3.605-32.5,3.441-32.5,3.441l-0.548-76.033C283.226,202.199,286.559,188.103,290.559,189.414z"/>
				<g>
					<path fill="none" stroke="#5C9FD9" stroke-miterlimit="10" d="M288.371,188.751c0,0-2.345,6.96-4.098,14.48
						c-1.753,7.521-1.563,13.955-1.563,13.955s2.063,27.045,2.063,34.045"/>
					<g>
						<path fill="none" stroke="#5C9FD9" stroke-miterlimit="10" d="M304.559,239.25c0,0-6,2.001-9,8.501"/>
						<path fill="none" stroke="#5C9FD9" stroke-miterlimit="10" d="M306.893,244.25c0,0-20.119,5.482-33.619,16.482"/>
					</g>
				</g>
			</g>
			<g>
				<path fill="#FAC4A8" d="M260.094,167.401l4.577,22.85c0,0-2.864,7.377-13.04,7.315c-10.181-0.062-14.533-7.116-14.533-7.116
					l3.994-22.495L260.094,167.401z"/>
				<path fill="#FAC4A8" d="M278.15,154.708c-1.635-1.578-4.95,0.506-5.506,0.905c-0.076-3.779-0.335-7.199-0.814-9.198
					c-1.812-7.567-8.827-13.24-15.546-15.209c-9.9-2.895-18.154-0.169-24.089,8.469c-3.062,4.443-4.972,9.681-5.641,15.021
					c-0.934-0.571-1.999-0.961-3.091-0.761c-1.807,0.341-4.689,5.264-2.829,9.301c1.848,4.026,7.178,5.573,7.752,5.686
					c1.957,6.491,5.353,11.234,12.04,14.666c6.631,3.403,14.669,4.417,20.605,0.357c5.844-3.995,10.854-12.279,11.142-15.007
					c2.483-0.859,5.644-3.51,6.73-5.626C280.326,160.543,280.546,157.027,278.15,154.708z"/>
				<circle fill="#7C564F" cx="240.775" cy="165.179" r="3.176"/>
				<circle fill="#7C564F" cx="259.223" cy="165.179" r="3.175"/>
				<g>
					<g>
						<g>
							<path fill="#27439C" d="M243.312,158.211c-1.151-0.314-2.323-0.563-3.518-0.593c-1.08-0.027-1.96,0.491-2.755,1.182
								c-0.167,0.146-0.09,0.485,0.138,0.522c0.85,0.138,1.755,0.05,2.617,0.043c1.035-0.008,2.071,0.213,3.072,0.466
								C243.916,160.096,244.357,158.497,243.312,158.211L243.312,158.211z"/>
						</g>
					</g>
					<g>
						<g>
							<path fill="#27439C" d="M257.132,159.831c1.006-0.253,2.033-0.46,3.072-0.466c0.866-0.005,1.764,0.096,2.618-0.043
								c0.228-0.037,0.305-0.377,0.138-0.522c-0.803-0.698-1.671-1.195-2.756-1.182c-1.191,0.015-2.374,0.281-3.518,0.593
								C255.641,158.497,256.082,160.095,257.132,159.831L257.132,159.831z"/>
						</g>
					</g>
				</g>
				<g>
					<path fill="#DC8C7A" d="M250.23,162.909c0.226,1.04,0.318,2.064,0.372,3.085c0.037,1.019,0.05,2.036-0.011,3.044l-0.035,0.57
						l-0.685,0.295l-0.487,0.209c-0.166,0.076-0.326,0.163-0.48,0.244c-0.306,0.164-0.579,0.359-0.744,0.516
						c-0.085,0.08-0.109,0.14-0.133,0.157c-0.006,0.009-0.009-0.019-0.023-0.007c0.014,0.015,0.012,0.033,0.004,0.06
						c0.022,0.038,0.054,0.083,0.076,0.129c0.027,0.092,0.183,0.209,0.26,0.327c-0.006,0.001,0.064,0.062-0.004,0.014l0.061,0.051
						l0.121,0.102l0.238,0.21l0.467,0.421l0.438,0.325c0.138,0.126,0.292,0.239,0.462,0.336c0.328,0.217,0.667,0.415,1.034,0.593
						c0.184,0.068,0.372,0.179,0.569,0.237c0.197,0.07,0.399,0.139,0.618,0.182c-0.403,0.207-0.863,0.259-1.323,0.29
						c-0.228,0-0.455-0.021-0.689-0.033c-0.236-0.009-0.449-0.084-0.679-0.128c-0.46-0.073-0.899-0.293-1.349-0.475l-0.567-0.299
						l-0.277-0.154l-0.137-0.08l-0.068-0.04l-0.121-0.092c-0.213-0.184-0.425-0.299-0.625-0.566c-0.1-0.125-0.198-0.247-0.29-0.385
						c-0.083-0.169-0.161-0.347-0.222-0.529c-0.103-0.4-0.088-0.855,0.054-1.244c0.138-0.37,0.354-0.661,0.564-0.882
						c0.425-0.445,0.873-0.703,1.31-0.929c0.218-0.113,0.442-0.201,0.664-0.286c0.229-0.083,0.433-0.157,0.698-0.224l-0.719,0.865
						c0.155-0.999,0.385-1.989,0.639-2.976C249.479,164.858,249.788,163.876,250.23,162.909z"/>
				</g>
				<g>
					<g>
						<path fill="#DC8C7A" d="M258.02,173.528c-1.313,1.754-3.792,4.124-6.026,4.192c-1.323,0.041-2.677-0.204-3.962-0.494
							c-0.623-0.14-1.172-0.392-1.765-0.083c-0.112,0.058-0.153,0.195-0.126,0.311c0.45,1.938,5.154,1.868,6.562,1.671
							c2.261-0.315,5.477-3.058,6.229-5.213C259.131,173.335,258.333,173.111,258.02,173.528L258.02,173.528z"/>
					</g>
				</g>
				<path fill="none" stroke="#DC8C7A" stroke-miterlimit="10" d="M240.427,183.587c6.631,3.403,14.669,4.417,20.605,0.357"/>
				<path fill="#27439C" d="M225.15,152.208c0,0,1.5,5,3,8.5s3.5-1,4-3.5s0-7.5,0-7.5s4.5,5.5,8.5,1.5s4.5-6.5,7-6s5.5,1,8-1.5
					s9-5.5,8.5-9s-5-9.5-10.5-11c-5.307-1.447-11-2.5-16.5,2s-5.5,8-6.5,12S222.65,142.208,225.15,152.208z"/>
				<path fill="#27439C" d="M259.15,133.208c0,0-2,7,2.5,11.5s7.5,2.5,7,7s0,13,1.5,11s4-5,5.5-9.5s0.5-10.5-1.5-14.5
					s-2.5-6.5-4.5-9S259.15,129.708,259.15,133.208z"/>
				<path fill="none" stroke="#475EB8" stroke-miterlimit="10" d="M262.15,136.708c0,0,0.667,3,4,5s5.332,3.332,4.666,6.666
					s1,7.667,1,7.667"/>
				<path fill="none" stroke="#475EB8" stroke-miterlimit="10" d="M266.15,133.708c0,0,2.666,0.667,4.333,4s2.667,9,2.667,9"/>
				<path fill="none" stroke="#475EB8" stroke-miterlimit="10" d="M256.483,134.042c0,0-2.666,5.667-6.666,6s-7-3.334-8,0.333
					s-1.001,8-4.334,7s-6.666-1.667-7.666,0"/>
				<path fill="none" stroke="#475EB8" stroke-miterlimit="10" d="M232.817,141.375c0,0,5.334-1.332,6-5.666s3.747-6.193,6.333-5
					c4.333,2,5.667-0.668,7.667-1.334s5,2,5,2"/>
			</g>
		</g>
		<path fill="#E6E6E6" d="M302.781,273.667c0,0.229-0.185,0.414-0.412,0.414H197.63c-0.228,0-0.412-0.186-0.412-0.414v-2.979
			c0-0.227,0.185-0.412,0.412-0.412h104.739c0.228,0,0.412,0.186,0.412,0.412V273.667z"/>
		<g>
			<g>
				<rect x="111" y="284.242" fill="#15193B" width="4.5" height="162.989"/>
				<rect x="103.5" y="284.242" fill="#1F2557" width="8.5" height="162.989"/>
			</g>
			<g>
				<rect x="169.333" y="275.576" fill="#15193B" width="4.5" height="164.661"/>
				<rect x="161.833" y="275.576" fill="#1F2557" width="8.5" height="164.661"/>
			</g>
			<g>
				<rect x="384.5" y="284.242" fill="#15193B" width="4.5" height="162.989"/>
				<rect x="388" y="284.242" fill="#1F2557" width="8.5" height="162.989"/>
			</g>
			<g>
				<rect x="326.167" y="275.576" fill="#15193B" width="4.5" height="164.661"/>
				<rect x="329.667" y="275.576" fill="#1F2557" width="8.5" height="164.661"/>
			</g>
		</g>
		<path fill="#282E70" d="M405.5,282.92c0,1.254-1.017,2.271-2.271,2.271H96.771c-1.254,0-2.271-1.017-2.271-2.271v-7.568
			c0-1.255,1.017-2.271,2.271-2.271h306.459c1.254,0,2.271,1.016,2.271,2.271V282.92z"/>
		<g>
			<g>
				<path fill="#FAC4A8" d="M271.052,263.482c0,0-4.153-2.249-4.984,0.751s-3.338,3.44-2.334,5.666
					c1.167,2.585,3.994,0.833,5.656-0.167s3.048-3,3.048-3L271.052,263.482z"/>
				<path fill="#FAC4A8" d="M269.112,265.732c0,0,1.295-5.416,3.788-5.166c2.494,0.25,3.728,0.583,5.667,0.333
					s5.002-0.083,5.833,0.667s2.998,0.166,4.106,1.166s2.771,2.5,2.216,4.75c-0.554,2.25-2.216,5-4.155,3.75
					c-0.834-0.537-1.672-0.721-1.672-0.721s-0.88,0.509-1.828,1.222c-0.802,0.604-2.834-0.667-2.834-0.667s-2.138,1.42-3,1.333
					c-2.224-0.223-2.5-1.333-2.5-1.333s-1.837,1.667-3.5,1.167C269.571,271.733,267.173,268.482,269.112,265.732z"/>
				<path fill="none" stroke="#DC8C7A" stroke-miterlimit="10" d="M269.9,263.899c0,0-2,3.333-1.167,5.5"/>
				<path fill="none" stroke="#DC8C7A" stroke-miterlimit="10" d="M275.733,263.566c0,0-2.5,3.167-1.166,6.833"/>
				<path fill="none" stroke="#DC8C7A" stroke-miterlimit="10" d="M280.733,263.566c0,0-2.333,2.833-0.666,7.166"/>
				<path fill="none" stroke="#DC8C7A" stroke-miterlimit="10" d="M285.233,263.733c0,0-0.833,4,0,6.5"/>
			</g>
			<g>
				<path fill="#FAC4A8" d="M228.947,263.482c0,0,4.153-2.249,4.984,0.751s3.338,3.44,2.334,5.666
					c-1.167,2.585-3.994,0.833-5.656-0.167s-3.048-3-3.048-3L228.947,263.482z"/>
				<path fill="#FAC4A8" d="M230.887,265.732c0,0-1.295-5.416-3.788-5.166c-2.494,0.25-3.728,0.583-5.667,0.333
					s-5.002-0.083-5.833,0.667s-2.998,0.166-4.106,1.166s-2.771,2.5-2.216,4.75c0.554,2.25,2.216,5,4.155,3.75
					c0.834-0.537,1.672-0.721,1.672-0.721s0.88,0.509,1.828,1.222c0.802,0.604,2.834-0.667,2.834-0.667s2.138,1.42,3,1.333
					c2.224-0.223,2.5-1.333,2.5-1.333s1.837,1.667,3.5,1.167C230.428,271.733,232.826,268.482,230.887,265.732z"/>
				<path fill="none" stroke="#DC8C7A" stroke-miterlimit="10" d="M230.099,263.899c0,0,2,3.333,1.167,5.5"/>
				<path fill="none" stroke="#DC8C7A" stroke-miterlimit="10" d="M224.266,263.566c0,0,2.5,3.167,1.166,6.833"/>
				<path fill="none" stroke="#DC8C7A" stroke-miterlimit="10" d="M219.266,263.566c0,0,2.333,2.833,0.666,7.166"/>
				<path fill="none" stroke="#DC8C7A" stroke-miterlimit="10" d="M214.766,263.733c0,0,0.833,4,0,6.5"/>
			</g>
		</g>
		<path fill="#1255AC" d="M290.422,297.565c-6.667-2-33.552-0.833-40.421-0.833s-33.755-1.167-40.422,0.833
			c-6.666,2-23.499,11.524-23.499,31.807c0,17.213,13.928,49.998,15.827,61.775s3.799,23.666,3.799,23.666
			s23.425,2.618,27.224-3.926c3.799-6.543-2.684-69.656-2.684-69.656s4.624-12.999,19.755-12.999s19.754,12.999,19.754,12.999
			s-6.482,63.113-2.684,69.656c3.799,6.544,27.224,3.926,27.224,3.926s1.899-11.889,3.799-23.666s15.827-44.563,15.827-61.775
			C313.921,309.089,297.088,299.565,290.422,297.565z"/>
		<rect x="245.334" y="335.565" fill="#15193B" width="9.333" height="65.334"/>
		<g>
			
				<linearGradient id="SVGID_4_" gradientUnits="userSpaceOnUse" x1="364.9199" y1="159.0732" x2="364.9199" y2="268.1527" gradientTransform="matrix(1 0 -0.1027 1 19.5038 0)">
				<stop  offset="0.0053" style="stop-color:#FFFFFF;stop-opacity:0"/>
				<stop  offset="1" style="stop-color:#FFFFFF"/>
			</linearGradient>
			<polygon fill="url(#SVGID_4_)" points="311.591,154.298 312.652,270.263 398.631,270.263 425.563,154.298 			"/>
			<g>
				<path fill="#A3A3A3" d="M401.558,270.501c-0.146,1.425-1.42,2.58-2.845,2.58H311.99c-1.426,0-2.461-1.155-2.315-2.58
					l6.447-52.782c0.146-1.425,1.419-2.58,2.845-2.58h86.723c1.425,0,2.461,1.155,2.315,2.58L401.558,270.501z"/>
				<path fill="#CCCCCC" d="M405.69,215.14h-86.723c-1.426,0-2.699,1.155-2.845,2.58l-0.278,2.709
					c0.146-1.425,1.419-2.58,2.845-2.58h86.723c1.425,0,2.461,1.155,2.315,2.58l0.278-2.709
					C408.151,216.295,407.115,215.14,405.69,215.14z"/>
			</g>
			<circle fill="#CCCCCC" cx="361.84" cy="246.987" r="8.25"/>
		</g>
		<g>
			<linearGradient id="SVGID_5_" gradientUnits="userSpaceOnUse" x1="250" y1="126.9761" x2="250" y2="258.1933">
				<stop  offset="0.0053" style="stop-color:#FFFFFF;stop-opacity:0"/>
				<stop  offset="1" style="stop-color:#FFFFFF"/>
			</linearGradient>
			<polygon fill="url(#SVGID_5_)" points="179.75,121.232 195.25,260.732 304.75,260.732 320.25,121.232 			"/>
			<g>
				<path fill="#A3A3A3" d="M308.019,260.996c0,1.578-1.279,2.857-2.857,2.857H194.838c-1.579,0-2.857-1.279-2.857-2.857v-69.527
					c0-1.578,1.278-2.857,2.857-2.857h110.323c1.578,0,2.857,1.279,2.857,2.857V260.996z"/>
				<path fill="#CCCCCC" d="M305.161,188.611H194.838c-1.579,0-2.857,1.279-2.857,2.857v3c0-1.578,1.278-2.857,2.857-2.857h110.323
					c1.578,0,2.857,1.279,2.857,2.857v-3C308.019,189.89,306.739,188.611,305.161,188.611z"/>
			</g>
			<g>
				<path fill="#C5C6C5" d="M263.632,271.875c0,0.666-0.541,1.207-1.207,1.207h-24.85c-0.667,0-1.207-0.541-1.207-1.207V218.99
					c0-0.666,0.54-1.207,1.207-1.207h24.85c0.666,0,1.207,0.541,1.207,1.207V271.875z"/>
				<path fill="#DFDFDF" d="M262.425,217.783h-24.85c-0.667,0-1.207,0.541-1.207,1.207v2c0-0.666,0.54-1.207,1.207-1.207h24.85
					c0.666,0,1.207,0.541,1.207,1.207v-2C263.632,218.324,263.091,217.783,262.425,217.783z"/>
			</g>
		</g>
		<g>
			<line fill="#B3B39A" x1="154.089" y1="273.082" x2="130.996" y2="273.082"/>
		</g>
	</g>
</g>
<g id="DESIGNED_BY_FREEPIK">
	<g>
		<path fill="#F9FBFC" d="M260.104,465.463c-0.432,0.443-0.803,0.932-1.107,1.453l-0.465-0.24c-0.068-0.297-0.35-0.502-0.66-0.467
			c-0.33,0.039-0.566,0.34-0.529,0.67c0.039,0.332,0.34,0.568,0.67,0.529c0.066-0.006,0.127-0.025,0.184-0.051l0.451,0.234
			c-0.25,0.553-0.432,1.139-0.539,1.742l0.748,0.133c0.229-1.307,0.85-2.508,1.791-3.475L260.104,465.463z"/>
		<path fill="#F9FBFC" d="M262.596,464.594c0.936-0.447,1.941-0.674,2.996-0.674c0.496,0,0.992,0.053,1.475,0.158l0.16-0.742
			c-0.535-0.115-1.084-0.174-1.635-0.174c-0.172,0-0.342,0.006-0.51,0.016l-0.074-0.625c0.188-0.15,0.297-0.389,0.266-0.645
			c-0.045-0.393-0.402-0.674-0.795-0.629c-0.393,0.047-0.674,0.402-0.627,0.797c0.029,0.254,0.189,0.461,0.404,0.563l0.072,0.625
			c-0.713,0.115-1.402,0.332-2.059,0.645L262.596,464.594z"/>
		<path fill="#F9FBFC" d="M272.047,464.512c-0.309,0.037-0.535,0.303-0.529,0.607l-0.416,0.363c-0.418-0.43-0.891-0.813-1.408-1.139
			l-0.404,0.641c1.135,0.715,2.021,1.727,2.564,2.926l0.689-0.313c-0.25-0.553-0.566-1.072-0.941-1.545l0.402-0.352
			c0.061,0.012,0.125,0.016,0.189,0.008c0.332-0.041,0.566-0.342,0.525-0.672C272.68,464.706,272.379,464.471,272.047,464.512z"/>
		<path fill="#F9FBFC" d="M265.045,473.372c-0.387,0.023-0.775,0.035-1.158,0.035c-0.879,0-1.732-0.061-2.479-0.18
			c-0.391-0.063-0.846-0.154-1.27-0.293c1.047,1.861,3.068,3.125,5.389,3.125c2.855,0,5.262-1.916,5.949-4.502
			c-0.682,0.449-1.506,0.824-2.459,1.121C267.838,473.048,266.463,473.286,265.045,473.372z"/>
		<path fill="#F9FBFC" d="M265.592,464.678c-3.352,0-6.08,2.668-6.08,5.945c0,0.424,0.047,0.848,0.137,1.26
			c0.674,0.484,2.707,0.891,5.348,0.732c2.881-0.174,5.297-0.959,6.672-2.161c-0.004-0.193-0.02-0.389-0.045-0.58
			C271.244,466.913,268.65,464.678,265.592,464.678z M263.432,471.194c-1.02,0-1.85-0.83-1.85-1.85s0.83-1.85,1.85-1.85
			s1.85,0.83,1.85,1.85S264.451,471.194,263.432,471.194z M268.17,470.286c-0.75,0-1.361-0.609-1.361-1.359s0.611-1.361,1.361-1.361
			s1.359,0.611,1.359,1.361S268.92,470.286,268.17,470.286z"/>
		<path fill="#F9FBFC" d="M279.369,467.315c0-0.666,0.293-0.938,0.844-1.008c0.576-0.07,1.088,0.123,1.383,0.238v-1.729
			c-0.434-0.186-0.947-0.307-1.59-0.307c-1.674,0-2.568,1.102-2.568,2.783v0.889h-1.34v1.717h1.34v5.456h1.932v-5.456h2.229v-1.717
			h-2.229V467.315z"/>
		<path fill="#F9FBFC" d="M286.223,467.989c-0.881,0-1.568,0.305-2.02,0.977v-0.783h-1.873v7.172h1.932v-3.909
			c0-1.066,0.615-1.613,1.51-1.613c0.168,0,0.35,0.016,0.525,0.045l1.021-1.551C287.07,468.118,286.637,467.989,286.223,467.989z"/>
		<path fill="#F9FBFC" d="M290.479,467.989c-2.146,0-3.627,1.539-3.627,3.797c0,2.258,1.525,3.754,3.725,3.754
			c1.205,0,2.242-0.342,3.057-1.09l-1.133-1.242c-0.52,0.436-1.191,0.688-1.814,0.688c-0.91,0-1.635-0.451-1.842-1.486h5.084
			c0.021-0.164,0.037-0.43,0.037-0.652C293.957,469.522,292.543,467.989,290.479,467.989z M288.852,471.09
			c0.17-0.889,0.703-1.436,1.613-1.436c0.828,0,1.383,0.518,1.561,1.436H288.852z"/>
		<path fill="#F9FBFC" d="M298.133,467.989c-2.146,0-3.627,1.539-3.627,3.797c0,2.258,1.523,3.754,3.723,3.754
			c1.207,0,2.242-0.342,3.057-1.09l-1.133-1.242c-0.518,0.436-1.191,0.688-1.813,0.688c-0.91,0-1.637-0.451-1.844-1.486h5.086
			c0.021-0.164,0.037-0.43,0.037-0.652C301.611,469.522,300.197,467.989,298.133,467.989z M296.504,471.09
			c0.17-0.889,0.703-1.436,1.613-1.436c0.828,0,1.385,0.518,1.563,1.436H296.504z"/>
		<path fill="#F9FBFC" d="M306.484,467.989c-0.984,0-1.672,0.4-2.139,0.984v-0.791h-1.887v10.133h1.924v-3.709
			c0.467,0.555,1.148,0.934,2.109,0.934c1.977,0,3.473-1.621,3.473-3.775C309.965,469.61,308.469,467.989,306.484,467.989z
			 M306.131,473.741c-1.096,0-1.844-0.844-1.844-1.977c0-1.133,0.748-1.977,1.844-1.977c1.139,0,1.85,0.881,1.85,1.977
			C307.98,472.86,307.27,473.741,306.131,473.741z"/>
		<rect x="310.877" y="468.182" fill="#F9FBFC" width="1.932" height="7.172"/>
		<path fill="#F9FBFC" d="M311.832,464.59c-0.697,0-1.229,0.549-1.229,1.244s0.531,1.23,1.229,1.23c0.695,0,1.236-0.535,1.236-1.23
			S312.527,464.59,311.832,464.59z"/>
		<polygon fill="#F9FBFC" points="317.623,471.558 321.102,468.182 318.734,468.182 316.031,470.735 316.031,464.694 314.1,464.694 
			314.1,475.354 316.031,475.354 316.031,472.452 318.748,475.354 321.125,475.354 		"/>
		<path fill="#F9FBFC" d="M184.411,469.284c-0.57-0.777-1.435-1.246-2.387-1.246c-1.86,0-3.149,1.465-3.149,3.721
			c0,2.301,1.304,3.707,3.149,3.707c0.996,0,1.859-0.514,2.387-1.23v1.055h1.1v-9.772h-1.1V469.284z M184.411,473.37
			c-0.395,0.615-1.244,1.113-2.124,1.113c-1.42,0-2.27-1.156-2.27-2.725c0-1.567,0.85-2.739,2.27-2.739
			c0.88,0,1.729,0.527,2.124,1.143V473.37z"/>
		<path fill="#F9FBFC" d="M190.417,468.038c-2.021,0-3.486,1.656-3.486,3.708c0,2.211,1.509,3.721,3.604,3.721
			c1.157,0,2.109-0.381,2.813-1.084l-0.527-0.719c-0.557,0.572-1.377,0.895-2.183,0.895c-1.523,0-2.461-1.113-2.549-2.447h5.728
			v-0.277C193.815,469.708,192.556,468.038,190.417,468.038z M188.088,471.305c0.059-1.084,0.806-2.359,2.314-2.359
			c1.611,0,2.314,1.305,2.329,2.359H188.088z"/>
		<path fill="#F9FBFC" d="M195.866,470.045c0-0.631,0.601-1.113,1.566-1.113c0.909,0,1.686,0.381,2.109,0.893l0.514-0.762
			c-0.571-0.57-1.421-1.025-2.623-1.025c-1.685,0-2.636,0.938-2.636,2.037c0,2.622,4.38,1.567,4.38,3.282
			c0,0.703-0.586,1.215-1.671,1.215c-0.966,0-1.859-0.469-2.328-1.01l-0.571,0.791c0.718,0.762,1.699,1.113,2.856,1.113
			c1.831,0,2.782-0.953,2.782-2.139C200.245,470.573,195.866,471.599,195.866,470.045z"/>
		<rect x="201.666" y="468.213" fill="#F9FBFC" width="1.1" height="7.077"/>
		<path fill="#F9FBFC" d="M202.208,465.723c-0.395,0-0.731,0.336-0.731,0.746s0.337,0.734,0.731,0.734
			c0.41,0,0.747-0.324,0.747-0.734S202.618,465.723,202.208,465.723z"/>
		<path fill="#F9FBFC" d="M209.708,469.284c-0.571-0.777-1.421-1.246-2.373-1.246c-1.86,0-3.149,1.406-3.149,3.678
			c0,2.285,1.304,3.662,3.149,3.662c0.996,0,1.86-0.543,2.373-1.26v1.01c0,1.553-1.099,2.125-2.271,2.125
			c-1.011,0-1.714-0.264-2.3-0.967l-0.557,0.82c0.835,0.818,1.655,1.055,2.856,1.055c1.729,0,3.369-0.732,3.369-3.076v-6.872h-1.099
			V469.284z M209.708,473.253c-0.381,0.615-1.23,1.158-2.109,1.158c-1.421,0-2.271-1.143-2.271-2.695
			c0-1.569,0.85-2.696,2.271-2.696c0.879,0,1.729,0.527,2.109,1.143V473.253z"/>
		<path fill="#F9FBFC" d="M216.255,468.038c-1.055,0-2.021,0.615-2.519,1.201v-1.025h-1.1v7.077h1.1v-5.172
			c0.409-0.57,1.229-1.098,2.094-1.098c0.952,0,1.582,0.395,1.582,1.641v4.629h1.099v-4.967
			C218.511,468.786,217.734,468.038,216.255,468.038z"/>
		<path fill="#F9FBFC" d="M223.418,468.038c-2.021,0-3.486,1.656-3.486,3.708c0,2.211,1.509,3.721,3.604,3.721
			c1.157,0,2.109-0.381,2.813-1.084l-0.527-0.719c-0.557,0.572-1.377,0.895-2.183,0.895c-1.523,0-2.461-1.113-2.549-2.447h5.728
			v-0.277C226.816,469.708,225.557,468.038,223.418,468.038z M221.089,471.305c0.059-1.084,0.806-2.359,2.314-2.359
			c1.611,0,2.314,1.305,2.329,2.359H221.089z"/>
		<path fill="#F9FBFC" d="M233.35,469.284c-0.571-0.777-1.437-1.246-2.389-1.246c-1.86,0-3.148,1.465-3.148,3.721
			c0,2.301,1.304,3.707,3.148,3.707c0.997,0,1.861-0.514,2.389-1.23v1.055h1.098v-9.772h-1.098V469.284z M233.35,473.37
			c-0.396,0.615-1.245,1.113-2.124,1.113c-1.421,0-2.271-1.156-2.271-2.725c0-1.567,0.85-2.739,2.271-2.739
			c0.879,0,1.728,0.527,2.124,1.143V473.37z"/>
		<path fill="#F9FBFC" d="M243.178,468.038c-0.967,0-1.816,0.469-2.388,1.246v-3.766h-1.099v9.772h1.099v-1.055
			c0.527,0.717,1.392,1.23,2.388,1.23c1.845,0,3.149-1.406,3.149-3.707C246.327,469.502,245.022,468.038,243.178,468.038z
			 M242.899,474.483c-0.864,0-1.729-0.498-2.109-1.113v-3.208c0.381-0.615,1.245-1.143,2.109-1.143c1.436,0,2.285,1.172,2.285,2.739
			C245.185,473.327,244.335,474.483,242.899,474.483z"/>
		<path fill="#F9FBFC" d="M250.237,474.015l-2.358-5.801h-1.187l2.959,7.149l-0.469,1.07c-0.249,0.586-0.571,0.746-1.055,0.746
			c-0.175,0-0.439-0.043-0.601-0.117l-0.176,0.996c0.205,0.059,0.571,0.104,0.806,0.104c0.938-0.016,1.655-0.412,2.08-1.436
			l3.546-8.512h-1.201L250.237,474.015z"/>
	</g>
</g>
</svg>
